<svg viewBox="0 0 375 173.72" xmlns="http://www.w3.org/2000/svg"><path d="M233.35 29.1a127.92 127.92 0 0 1 141.65-6v-5.31a132.47 132.47 0 0 0-192.19 155.93h4.79A127.92 127.92 0 0 1 233.35 29.1z" fill="#fff"/><path d="M233.35 29.1a127.92 127.92 0 0 0-45.75 144.62h23.18c-9-18-13-36.94-10.27-56.54A109.24 109.24 0 0 1 375 45.65V23.08a127.92 127.92 0 0 0-141.65 6.02z" fill="#ffe3ac"/><path d="M244.33 44.18a108.92 108.92 0 0 0-43.82 73c-2.76 19.6 1.26 38.54 10.27 56.54H375V45.65a109.27 109.27 0 0 0-130.67-1.47z" fill="#fff2d9"/><path d="M371.86 65.46c-10.32-.14-20 4.67-30.1 6.73A57.46 57.46 0 0 1 308.4 69c-8.49-3.53-16.59-9.22-25.78-9.06-12.92.22-22.51 10.76-27.14 22.34a12.22 12.22 0 0 1-13 7.55S271 118.45 279.9 123c18.91 9.72 40.39 13 61.43 16 10 1.46 21.73 2.33 28.48-5.15 2.31-2.55 3.68-5.76 5.19-8.87V65.69a29.94 29.94 0 0 0-3.14-.23z" fill="#870f00"/><path d="M153.46 116.36a20.8 20.8 0 0 0-10.59-5c-6-1-13.14-3.76-21.14-11s-11.47-14-13.11-19.88a20.94 20.94 0 0 0-6-10c-15.23 6.68-13.15 22.72-4.48 28.94a8.21 8.21 0 0 1 3.16 4.83 22.48 22.48 0 0 0 7 11.07 24.91 24.91 0 0 0 5.83 4 19 19 0 0 0 5.91 1.85 8.21 8.21 0 0 1 5.13 2.64c7.08 8 23.25 8.39 28.31-7.45zM37.39 114.6a20.84 20.84 0 0 0-7.12 9.28c-2.29 5.69-6.51 12-15.26 18.29a46.19 46.19 0 0 1-15 7.39V169a16.4 16.4 0 0 0 9-4 8.29 8.29 0 0 1 5.4-2.05 19.09 19.09 0 0 0 6.08-1.17 25.55 25.55 0 0 0 6.24-3.29 22.48 22.48 0 0 0 8.2-10.22 8.29 8.29 0 0 1 3.69-4.45c9.28-5.17 13.15-20.82-1.23-29.22z" fill="#f1998e"/><path d="M152.17 115.06a20.86 20.86 0 0 0-10.59-5c-6-1-13.15-3.76-21.14-11s-11.48-14-13.11-19.88a20.83 20.83 0 0 0-6-10c-15.26 6.72-13.18 22.76-4.51 28.97A8.23 8.23 0 0 1 100 103a22.48 22.48 0 0 0 7 11.07 25.22 25.22 0 0 0 5.83 4 19 19 0 0 0 5.91 1.85 8.21 8.21 0 0 1 5.13 2.64c7.08 8 23.25 8.38 28.31-7.46z" fill="#05a357"/><path d="M102.13 170.24a20.82 20.82 0 0 0 10.93-4.17c-3.88-16.17-20-16.95-27.68-9.51a8.29 8.29 0 0 1-5.32 2.25 22.54 22.54 0 0 0-12.14 4.94 25.18 25.18 0 0 0-4.93 5 19.2 19.2 0 0 0-2.66 4.93h29.36a36.6 36.6 0 0 1 12.44-3.44z" fill="#f1998e"/><path d="M100.84 169a20.82 20.82 0 0 0 10.93-4.17c-3.88-16.17-20-17-27.69-9.51a8.24 8.24 0 0 1-5.31 2.25 22.51 22.51 0 0 0-12.14 4.94 25.52 25.52 0 0 0-4.94 5 19 19 0 0 0-2.86 5.49c-.08.25-.17.49-.27.73H85.9a37.33 37.33 0 0 1 14.94-4.73zM36.1 113.31a20.84 20.84 0 0 0-7.1 9.28c-2.29 5.69-6.51 12-15.26 18.29A47.37 47.37 0 0 1 0 147.9v19.59a16.11 16.11 0 0 0 7.69-3.75 8.23 8.23 0 0 1 5.4-2.05 19.14 19.14 0 0 0 6.08-1.17 25.55 25.55 0 0 0 6.24-3.29 22.48 22.48 0 0 0 8.2-10.23 8.29 8.29 0 0 1 3.69-4.45c9.31-5.19 13.18-20.89-1.2-29.24z" fill="#05a357"/><path d="M225.91 160.72a19.65 19.65 0 0 0-12.13-6.15c-.1 0-.52 0-1.13-.06-3.38-.35-12.52-2.56-7.49-16.13 4.51-12.15.3-20.59-4.6-21.19a109 109 0 0 0 7 56.54H234c-2.29-4.65-4.59-9.26-8.09-13.01z" fill="#870f00"/><path d="M375 169.69v-49.1a289.05 289.05 0 0 0-65.27-16.77l-71.89-9.77a6.82 6.82 0 0 0-6.89 4.3l-14.85 33.48a6.94 6.94 0 0 0 1.13 7.72 217.15 217.15 0 0 0 45.28 34.17h7.34c-3.44-2.56-7.17-5.23-11.24-8l56.84 8h57.76z" fill="#ffe3ac"/><path d="M265.89 66.86a41.68 41.68 0 0 0-10.41 15.38 12.14 12.14 0 0 1-6.93 6.84 11.8 11.8 0 0 1-3.23.76h.21a17.07 17.07 0 0 0 19.61-16.21 40.79 40.79 0 0 1 .75-6.77z" fill="#5a0a00"/><path d="m295.28 76.5-4.85-12.58 12.04 2.9 4.85 12.58zm58.34 9.09-12.98-3.66 9.55-7.9 12.97 3.66z" fill="#05a357"/><path d="m297.25 67.45 5.46-12.33 3.24 5.28-5.47 12.33z" fill="#156a41"/><path d="M375 169.35v-54.12a288.82 288.82 0 0 0-63.36-16l-71.9-9.78a6.84 6.84 0 0 0-6.89 4.31L218 127.2a6.91 6.91 0 0 0 1.13 7.71A216.6 216.6 0 0 0 273 173.72h100z" fill="#ff6937"/><path d="m357.09 109.14-2.4-.71c-12.05 5.07-24 16.13-36.33 27.61-16.12 15-32.64 30.29-51.12 34.62l2 1.11c18.15-4.91 34.33-19.92 50.14-34.6 12.91-11.97 25.3-23.46 37.71-28.03zm-20.45-5.43c-.78-.18-1.56-.34-2.34-.51-9 4.9-18.16 13.69-27.67 22.8-16.51 15.81-34.82 33.34-55.8 34.72l2.09 1.38c20.65-2.31 38.57-19.46 54.78-35 10.02-9.58 19.67-18.82 28.94-23.39zm-40.47 13.01c6.69-6.68 12.9-12.89 18.66-17l-2.14-.33c-5.52 4.21-11.36 10-17.61 16.29-17.17 17.17-36.43 36.42-59.42 34l2.13 1.69h1.66c22.12-.05 41.07-18.99 56.72-34.65zm-11.17-11c3-3.23 5.93-6.32 8.65-9l-1.93-.26c-2.47 2.46-5.07 5.24-7.85 8.2-16.49 17.6-37 39.42-61.91 32.92l2.22 2.07a36.78 36.78 0 0 0 6.62.63c21.76.01 40.2-19.66 54.2-34.56zM273.75 94l-1.8-.25c-12.18 14.55-31.39 36.58-54 33.66a7.35 7.35 0 0 0-.44 1.5 33.74 33.74 0 0 0 4.57.31c21.92.04 40.07-21.3 51.67-35.22zm-18.88-2.53-1.74-.24c-7.26 9.34-17.6 19.79-29.72 23.78l-.82 1.86c13.33-3.87 24.61-15.4 32.28-25.4zm63.06 64.32c-8.47 6.33-17.05 12.76-24.82 17.93h2.77c7.17-4.87 15-10.72 23-16.7C339.72 141.41 363 124 375 124.74v-1.53c-12.62-.68-35.16 16.18-57.07 32.58zm51.64-13.7c-5.71-4-18.28 5.75-34.2 18.11-5.55 4.32-11.6 9-17.89 13.52h2.63c5.69-4.13 11.16-8.37 16.21-12.3 14.8-11.5 27.57-21.44 32.36-18.07 3.54 2.5 3.13 12.34-1.39 30.37h1.6c4.68-18.86 4.8-28.72.68-31.63z" fill="#fa9269"/><path d="M356.89 167.51c-3.34-2.8-11 .31-20.27 6.21h2.85c11.22-6.82 15.11-6.14 16.43-5 .65.55 1.42 1.87 1 5h1.55c.35-2.94-.15-5.03-1.56-6.21z" fill="#fa9269"/><path d="M213.76 154.57c-.1 0-.52 0-1.13-.06a10.55 10.55 0 0 1 1.13.06z" fill="#870f00"/><path d="M375 150.43v-35.2a288.82 288.82 0 0 0-63.36-16l-71.9-9.78a6.84 6.84 0 0 0-6.89 4.31l-1.73 3.9c-4.72 37.27 64.33 65.33 22.08 64.67a212.85 212.85 0 0 0 19.85 11.43h85.53A807.37 807.37 0 0 1 375 150.43z" fill="#ab1300"/><path d="M312.69 99.34c-.35 0-.7-.11-1.05-.15l-18-2.46c-2.72 2.67-5.62 5.76-8.65 9-10 10.67-22.29 23.78-36.46 30.37 3.16 3.47 6.34 6.65 9.15 9.52 13.72-6.27 26-18.58 37.44-30 6.21-6.24 12.05-12.07 17.57-16.28z" fill="#ab1300"/><path d="M334.3 103.2q-9.66-2.1-19.47-3.53c-5.76 4.16-12 10.37-18.66 17-10.9 10.91-23.41 23.4-37.47 30 3.95 4.06 7 7.43 7.93 10 14.56-6.33 27.78-19 40-30.69 9.51-9.09 18.7-17.88 27.67-22.78zm40.7 20.01v-8q-8.85-3.35-17.91-6.09c-12.41 4.57-24.8 16.06-37.68 28-15.8 14.67-32 29.68-50.11 34.59 1.25.66 2.49 1.32 3.75 2h20.06c7.77-5.17 16.35-11.6 24.82-17.93 21.91-16.39 44.45-33.25 57.07-32.57z" fill="#ab1300"/><path d="M354.69 108.43c-6-1.76-12-3.35-18.05-4.72-9.27 4.57-18.92 13.81-28.94 23.41-12.43 11.88-25.86 24.75-40.7 31.14-.05 2.76-3.84 4.19-13.75 4q6.87 4.47 14.05 8.37c18.48-4.33 35-19.65 51.11-34.62 12.32-11.45 24.23-22.51 36.28-27.58zm-101.56-17.2-13.39-1.82a6.84 6.84 0 0 0-6.89 4.31l-1.73 3.9a31.41 31.41 0 0 0 1.23 13.18c8.28-5.06 15.38-12.62 20.78-19.57z" fill="#ab1300"/><path d="m272 93.79-17.08-2.32c-5.62 7.32-13.16 15.45-22 20.81a51.46 51.46 0 0 0 5.72 11.32c13.54-6.6 25.04-19.93 33.36-29.81z" fill="#ab1300"/><path d="M283.82 104.67c2.78-3 5.39-5.74 7.85-8.2L273.75 94c-8.37 10-20.16 23.89-34.31 30.86a101.8 101.8 0 0 0 8 10.08c13.84-6.22 25.92-19.1 36.38-30.27zm84.86 38.68c-4.79-3.37-17.56 6.57-32.36 18.07-5.05 3.93-10.52 8.17-16.21 12.3h16.51c9.28-5.9 16.93-9 20.27-6.21 1.41 1.18 1.91 3.27 1.54 6.21h.15c3.7-5.43 7.85-11.4 12.13-17.37.82-7.21.13-11.47-2.03-13z" fill="#ab1300"/><path d="M355.9 168.69c-1.32-1.11-5.21-1.79-16.43 5h17.41c.44-3.13-.33-4.45-.98-5zM318.85 157c-8 6-15.8 11.83-23 16.7h21.6c6.29-4.5 12.34-9.2 17.89-13.52 15.92-12.36 28.49-22.12 34.2-18.11 2.31 1.63 3.29 5.47 2.87 11.85l2.56-3.51v-25.67C363 124 339.72 141.41 318.85 157z" fill="#ab1300"/><path d="m357.09 109.14-2.4-.71c-12.05 5.07-24 16.13-36.33 27.61-16.12 15-32.63 30.29-51.11 34.62l2.05 1.1c18.14-4.91 34.31-19.92 50.11-34.59 12.88-11.97 25.27-23.46 37.68-28.03zm-20.45-5.43c-.78-.18-1.56-.34-2.34-.51-9 4.9-18.16 13.69-27.67 22.8-12.22 11.71-25.44 24.36-40 30.69a4.35 4.35 0 0 1 .32 1.57c14.89-6.39 28.32-19.25 40.75-31.14 10.02-9.6 19.67-18.84 28.94-23.41zm-21.81-4.04-2.14-.33c-5.52 4.21-11.36 10-17.61 16.29-11.4 11.4-23.72 23.71-37.44 30 .36.37.72.73 1.06 1.09 14.06-6.58 26.57-19.07 37.47-30 6.69-6.72 12.9-12.89 18.66-17.05zM285 105.72c3-3.23 5.93-6.32 8.65-9l-1.93-.26c-2.46 2.46-5.07 5.24-7.85 8.2-10.46 11.17-22.54 24-36.34 30.31l1 1.11c14.13-6.58 26.47-19.69 36.47-30.36zM273.75 94l-1.8-.25c-8.27 9.88-19.77 23.18-33.39 29.81.29.44.58.87.88 1.3 14.15-6.93 25.94-20.81 34.31-30.86zm-18.88-2.53-1.74-.24c-5.4 7-12.5 14.51-20.78 19.57.15.5.32 1 .49 1.48 8.87-5.36 16.41-13.49 22.03-20.81zm63.06 64.32c-8.47 6.33-17.05 12.76-24.82 17.93h2.77c7.17-4.87 15-10.72 23-16.7C339.72 141.41 363 124 375 124.74v-1.53c-12.62-.68-35.16 16.18-57.07 32.58zm51.64-13.7c-5.71-4-18.28 5.75-34.2 18.11-5.55 4.32-11.6 9-17.89 13.52h2.63c5.69-4.13 11.16-8.37 16.21-12.3 14.8-11.5 27.57-21.44 32.36-18.07 2.16 1.53 2.85 5.79 2 13l1.73-2.41c.45-6.38-.53-10.22-2.84-11.85zm-12.68 25.42c-3.34-2.8-11 .31-20.27 6.21h2.85c11.22-6.82 15.11-6.14 16.43-5 .65.55 1.42 1.87 1 5h1.55c.35-2.94-.15-5.03-1.56-6.21z" fill="#c14f29"/><path d="M223.39 168.61a3.12 3.12 0 0 1 1.81.41 5.22 5.22 0 0 1 .8.53 4.74 4.74 0 0 1-.61.74 3.07 3.07 0 0 1-1.61.93 3.61 3.61 0 0 1-2.66-.94 3.58 3.58 0 0 1 2.27-1.67zm128.78-25.54a3.09 3.09 0 0 1-.57 1.77 4.8 4.8 0 0 1-.59.76 4.65 4.65 0 0 1-.68-.67 3.08 3.08 0 0 1-.8-1.68 3.61 3.61 0 0 1 1.16-2.58 3.63 3.63 0 0 1 1.48 2.4zm-15.84-17.36a3.09 3.09 0 0 1-1-1.57 4.83 4.83 0 0 1-.19-.94 4.78 4.78 0 0 1 .95-.09 3.12 3.12 0 0 1 1.79.48 3.63 3.63 0 0 1 1.22 2.55 3.64 3.64 0 0 1-2.77-.43zm-20.72-38.78a3.21 3.21 0 0 1 .55-1.78 5.1 5.1 0 0 1 .59-.75 4.05 4.05 0 0 1 .69.66 3.16 3.16 0 0 1 .81 1.68 3.59 3.59 0 0 1-1.15 2.58 3.6 3.6 0 0 1-1.49-2.39zM278 119.26a3.1 3.1 0 0 1 .75-1.7 4.83 4.83 0 0 1 .66-.69 4.87 4.87 0 0 1 .61.73 3.21 3.21 0 0 1 .62 1.76 3.64 3.64 0 0 1-1.42 2.44 3.59 3.59 0 0 1-1.22-2.54zm1.92 46.99a3.15 3.15 0 0 1-1.85-.17 4.73 4.73 0 0 1-.86-.42 5 5 0 0 1 .51-.81 3.06 3.06 0 0 1 1.47-1.14 3.63 3.63 0 0 1 2.77.58 3.67 3.67 0 0 1-2.04 1.96zm-10.22-46.66a3.18 3.18 0 0 1 1.85-.2 4.4 4.4 0 0 1 .93.24 4.5 4.5 0 0 1-.33.89 3.18 3.18 0 0 1-1.21 1.41 3.63 3.63 0 0 1-2.83 0 3.6 3.6 0 0 1 1.59-2.34zm60.08 45.23a3.09 3.09 0 0 1 1.46-1.14 4.52 4.52 0 0 1 .91-.29 5.24 5.24 0 0 1 .19.94 3.15 3.15 0 0 1-.3 1.84 3.6 3.6 0 0 1-2.41 1.47 3.64 3.64 0 0 1 .15-2.82zm-7.47-9.68a3.2 3.2 0 0 1-1.35-1.27 4.59 4.59 0 0 1-.42-.86 4.92 4.92 0 0 1 .9-.33 3.18 3.18 0 0 1 1.86 0 3.66 3.66 0 0 1 1.83 2.16 3.64 3.64 0 0 1-2.82.3zm-25.07-48.9a3.2 3.2 0 0 1-.72-1.72 5.23 5.23 0 0 1 0-1 4.43 4.43 0 0 1 .95.06 3.21 3.21 0 0 1 1.7.76 3.61 3.61 0 0 1 .8 2.71 3.64 3.64 0 0 1-2.73-.81zm-24.83-28.11a3.2 3.2 0 0 1-.72-1.71 5.33 5.33 0 0 1 0-1 5.4 5.4 0 0 1 .95.06 3.21 3.21 0 0 1 1.7.76 3.63 3.63 0 0 1 .8 2.72 3.62 3.62 0 0 1-2.73-.83zM286 162a3.14 3.14 0 0 1 .73 1.71 4.41 4.41 0 0 1 0 1 4.52 4.52 0 0 1-1-.06 3.12 3.12 0 0 1-1.7-.75 3.67 3.67 0 0 1-.81-2.71 3.62 3.62 0 0 1 2.78.81zm-1.09-84a3.25 3.25 0 0 1-1.59 1 5.24 5.24 0 0 1-.94.18 4.41 4.41 0 0 1-.08-.95 3.06 3.06 0 0 1 .5-1.79 3.7 3.7 0 0 1 2.56-1.2 3.61 3.61 0 0 1-.45 2.76zm47.15 77.34a3.09 3.09 0 0 1 1.67-.8 5.18 5.18 0 0 1 1-.09 5.17 5.17 0 0 1 0 1 3.14 3.14 0 0 1-.68 1.73 3.62 3.62 0 0 1-2.67.92 3.61 3.61 0 0 1 .68-2.76zm-83.75-53.67a3.13 3.13 0 0 1-.87 1.65 4.91 4.91 0 0 1-.72.63 4.78 4.78 0 0 1-.56-.78 3.15 3.15 0 0 1-.48-1.79 3.67 3.67 0 0 1 1.6-2.34 3.65 3.65 0 0 1 1.03 2.63zM353 93.66a3.25 3.25 0 0 1 1.82.42 4.8 4.8 0 0 1 .79.53 4.74 4.74 0 0 1-.61.74 3.15 3.15 0 0 1-1.61.93 3.64 3.64 0 0 1-2.67-.94 3.65 3.65 0 0 1 2.28-1.68z" fill="#fff2d9"/><path d="M371.9 65.55a3.1 3.1 0 0 1 1-1.6 5 5 0 0 1 .74-.6 4.66 4.66 0 0 1 .52.81 3.15 3.15 0 0 1 .4 1.82 3.63 3.63 0 0 1-1.71 2.25 3.61 3.61 0 0 1-.95-2.68zm-35.02-6.61a3.12 3.12 0 0 1-1.08 1.51 4.82 4.82 0 0 1-.8.55 4.76 4.76 0 0 1-.45-.85 3.18 3.18 0 0 1-.24-1.84 3.68 3.68 0 0 1 1.89-2.11 3.67 3.67 0 0 1 .68 2.74zM227.33 93.39a3.14 3.14 0 0 1-1.07 1.52 5.47 5.47 0 0 1-.8.53 4.88 4.88 0 0 1-.45-.84 3.14 3.14 0 0 1-.24-1.85 3.58 3.58 0 0 1 1.89-2.1 3.63 3.63 0 0 1 .67 2.74zm95.44-35.62a3.23 3.23 0 0 1 1.38 1.23 4.55 4.55 0 0 1 .44.85 5 5 0 0 1-.89.36 3.17 3.17 0 0 1-1.86 0 3.65 3.65 0 0 1-1.84-2.07 3.66 3.66 0 0 1 2.77-.37zm2.7-7.49a3.11 3.11 0 0 1-.65-1.75 4.56 4.56 0 0 1 0-1 4.7 4.7 0 0 1 1 .1 3.14 3.14 0 0 1 1.66.84 3.66 3.66 0 0 1 .67 2.75 3.65 3.65 0 0 1-2.68-.94zm-90.69 81.51a4 4 0 0 1-1.63 1.65 5.6 5.6 0 0 1-1.05.47 6.47 6.47 0 0 1-.28-1.18 3.8 3.8 0 0 1 2.93-4.6 5.16 5.16 0 0 1 .03 3.66zM218.3 98.94a4.07 4.07 0 0 1-2.31-.2 5.5 5.5 0 0 1-1-.5 6.15 6.15 0 0 1 .73-1 4.39 4.39 0 0 1 2-1.36 4.44 4.44 0 0 1 3.42.68 5.13 5.13 0 0 1-2.84 2.38zM351.55 116a3.09 3.09 0 0 1 1.18 1.43 4.51 4.51 0 0 1 .31.9 4.45 4.45 0 0 1-.93.22 3.22 3.22 0 0 1-1.85-.24 3.64 3.64 0 0 1-1.54-2.37 3.62 3.62 0 0 1 2.83.06zm-51.84 49.47a3.11 3.11 0 0 1-.79 1.68 4.65 4.65 0 0 1-.68.67 4.75 4.75 0 0 1-.6-.75 3.24 3.24 0 0 1-.57-1.77 3.73 3.73 0 0 1 1.49-2.41 3.63 3.63 0 0 1 1.15 2.58zm49.75-14.28a3.1 3.1 0 0 1-1.67-.81 5.25 5.25 0 0 1-.66-.69 4.28 4.28 0 0 1 .76-.59 3.1 3.1 0 0 1 1.78-.54 3.64 3.64 0 0 1 2.38 1.51 3.54 3.54 0 0 1-2.59 1.12zm-103.88-16.07a3.1 3.1 0 0 1-1.67-.81 5.25 5.25 0 0 1-.66-.69 4.8 4.8 0 0 1 .75-.62 3.13 3.13 0 0 1 1.78-.54 3.67 3.67 0 0 1 2.39 1.51 3.6 3.6 0 0 1-2.59 1.15zM307.74 86a3.14 3.14 0 0 1 1.71-.73 4.9 4.9 0 0 1 1 0 4.53 4.53 0 0 1-.06 1 3.12 3.12 0 0 1-.75 1.7 3.62 3.62 0 0 1-2.71.81 3.62 3.62 0 0 1 .81-2.78zm-30.9-38.69a3.1 3.1 0 0 1 1.34 1.29 4.9 4.9 0 0 1 .41.86 4.53 4.53 0 0 1-.9.32 3 3 0 0 1-1.86 0 3.65 3.65 0 0 1-1.83-2.2 3.62 3.62 0 0 1 2.84-.27z" fill="#333"/><path d="m242.58 69.39 7.24-1.14-2.55 5.64-7.23 1.14z" fill="#156a41"/><path d="m242.97 72.39 13.27-2.42-2.55 5.65-13.26 2.42z" fill="#05a357"/><path d="m348.27 62.38 5.09 5.84c.65.76.24 4.14-.93 7.56s-2.67 5.56-3.32 4.81L344 74.74z" fill="#156a41"/><ellipse cx="346.15" cy="68.56" fill="#05a357" rx="6.6" ry="1.56" transform="rotate(-73.02 346.135 68.57)"/><path d="m310.01 147-10.32-9.48.72-6.5 10.32 9.48z" fill="#156a41"/><path d="m304.7 132.21-9.39-3.7 6.16-.62 9.39 3.69z" fill="#05a357"/><path d="m308.72 134.11-6.23-3.86 15.08-6.58 6.23 3.86z" fill="#156a41"/><path d="m352.17 127.7 5.68-2.45 10.5 6.58-5.69 2.45zm-74.41 21.6-4-8.92 4.42.82 4 8.91z" fill="#05a357"/><path d="m246.43 126.76-12.83-3.08-3.13-8.12 12.83 3.09z" fill="#156a41"/><path d="m237.53 115.03-7.36 5.07-5.5-2.1 7.36-5.07zm-9.9 40.58-7.36 5.07-5.51-2.09 7.36-5.08z" fill="#05a357"/><path d="m142.87 152.62 11.84-2.47 4.64 4.34-11.84 2.48z" fill="#156a41"/><path d="m151.69 161.36 2.24-8.65 5.54-2.03-2.24 8.65zM41.21 101.14l-7.5-4.86-.18-5.89 7.5 4.86z" fill="#05a357"/><circle cx="54.53" cy="143.23" fill="#c14f29" r="1.15"/><circle cx="162.01" cy="162.11" fill="#c14f29" r="1.15"/><circle cx="88.56" cy="160.97" fill="#c14f29" r="1.15"/><path d="M21.29 145.53a3.21 3.21 0 0 1 1.59-1 4.24 4.24 0 0 1 .94-.18 4.52 4.52 0 0 1 .08 1 3.17 3.17 0 0 1-.49 1.8 3.66 3.66 0 0 1-2.56 1.2 3.64 3.64 0 0 1 .44-2.82z" fill="#fff2d9"/><path d="M21.29 145.53a3.21 3.21 0 0 1 1.59-1 4.24 4.24 0 0 1 .94-.18 4.52 4.52 0 0 1 .08 1 3.17 3.17 0 0 1-.49 1.8 3.66 3.66 0 0 1-2.56 1.2 3.64 3.64 0 0 1 .44-2.82z" fill="#fff2d9"/><path d="M131.25 114.13a3.2 3.2 0 0 1 1.84-.27 4.9 4.9 0 0 1 .94.21 4.08 4.08 0 0 1-.3.9 3.2 3.2 0 0 1-1.16 1.46 3.67 3.67 0 0 1-2.83.08 3.62 3.62 0 0 1 1.51-2.38zm-46.48-9.6a3.16 3.16 0 0 1 .77 1.69 4.2 4.2 0 0 1 .07 1 4.66 4.66 0 0 1-.95 0 3.14 3.14 0 0 1-1.72-.71 3.64 3.64 0 0 1-.89-2.69 3.68 3.68 0 0 1 2.72.71zM16.51 121a3.14 3.14 0 0 1-1.86.08 4.85 4.85 0 0 1-.91-.3 4.61 4.61 0 0 1 .39-.87 3.16 3.16 0 0 1 1.31-1.33 3.63 3.63 0 0 1 2.82.21 3.59 3.59 0 0 1-1.75 2.21z" fill="#333"/><path d="M79.67 125.15a3.14 3.14 0 0 1-1.83-.29 4.9 4.9 0 0 1-.83-.48 5.29 5.29 0 0 1 .56-.78 3.12 3.12 0 0 1 1.54-1 3.66 3.66 0 0 1 2.73.75 3.61 3.61 0 0 1-2.17 1.8zm-64.91 22.36a3.23 3.23 0 0 1 .35-1.83 4.66 4.66 0 0 1 .5-.81 4.36 4.36 0 0 1 .75.58 3.13 3.13 0 0 1 1 1.57 3.58 3.58 0 0 1-.85 2.7 3.59 3.59 0 0 1-1.75-2.21z" fill="#fff2d9"/><path d="m37.54 125.512 2.001-1.856 1.857 2.001-2.002 1.857zm99.098-16.471 2.002-1.857 1.856 2.002-2.001 1.856zm16.63 27.006-.353-2.707 2.707-.353.353 2.707z" fill="#993f21"/><path d="M178.42 173.72h193.67" fill="none"/></svg>